<svg id="Capa_1" enable-background="new 0 0 512 512" height="512" viewBox="0 0 512 512" width="512" xmlns="http://www.w3.org/2000/svg"><g><path d="m78.772 176.778h39.384v167.838h-39.384z" fill="#92a0b5"/><path d="m78.768 176.778h20.604v167.837h-20.604z" fill="#7d8ea5"/><path d="m512 356.001v8.306l-10 5.027v30l10 4.356v15.23c0 2.74-1.54 5.23-3.99 6.45l-33.87 16.95c-1 .5-2.11.76-3.23.76h-455.46c-8.53 0-15.45-6.92-15.45-15.45v-43.63l10-13.21c-2.17-11.96 7.67-20.62 15.83-20.48l13.55-12.26 77.03-12.83c1.14-.19 2.22-.67 3.14-1.38l80.34-62.39c10.84-8.43 24.17-12.99 37.91-12.99h124.3c19.92 0 38.63 9.6 50.24 25.8l34.89 48.7c.92 1.28 2.23 2.22 3.73 2.69l50.17 15.58c6.46 2.011 10.87 8.001 10.87 14.771z" fill="#f07281"/><path d="m268.7 248.461c-13.73 0-27.06 4.56-37.91 12.99l-81.73 63.48-78.77 13.12-13.56 2.26c-14.89 2.48-25.82 15.38-25.82 30.48v56.84c0 8.53 6.92 15.45 15.45 15.45h-30.91c-8.53 0-15.45-6.92-15.45-15.45v-43.63l10-13.21c-2.17-11.96 7.67-20.62 15.83-20.48l13.55-12.26 77.03-12.83c1.14-.19 2.22-.67 3.14-1.38l80.34-62.39c10.84-8.43 24.17-12.99 37.91-12.99z" fill="#eb5569"/><path d="m39.38 338.051v11.5c-5.28 5.57-8.47 13.09-8.47 21.24v13.21h-30.91v-13.21c0-15.1 10.93-28 25.83-30.48z" fill="#eb5569"/><path d="m511.995 403.691h-32.384c-3.866 0-7-3.134-7-7v-25.384c0-3.866 3.134-7 7-7h32.384z" fill="#fee97d"/><path d="m39.384 338.052v38.946c0 3.866-3.134 7-7 7h-32.384v-13.207c0-15.103 10.93-28 25.827-30.483z" fill="#fee97d"/><path d="m39.38 338.051v11.5c-5.28 5.57-8.47 13.09-8.47 21.24v13.21h-30.91v-13.21c0-15.1 10.93-28 25.83-30.48z" fill="#fee45a"/><g fill="#8ac9fe"><path d="m329.993 344.38 70.515.196c5.88.016 9.306-6.633 5.882-11.412l-30.495-42.554c-1.354-1.89-3.537-3.011-5.862-3.011h-40.018c-3.983 0-7.211 3.228-7.211 7.211l-.001 42.358c-.002 3.976 3.215 7.201 7.19 7.212z"/><path d="m300.138 287.6h-67.634c-1.602 0-3.158.533-4.423 1.516l-53.997 41.938c-5.417 4.207-2.455 12.888 4.403 12.906l121.632.338c3.991.011 7.231-3.221 7.231-7.211v-42.276c0-3.983-3.229-7.211-7.212-7.211z"/></g><g><path d="m315.076 391.725h-39.384c-4.267 0-7.726-3.459-7.726-7.726s3.459-7.726 7.726-7.726h39.384c4.267 0 7.726 3.459 7.726 7.726s-3.459 7.726-7.726 7.726z" fill="#eaf6ff"/></g><path d="m157.54 36.541v143.54c0 3.86-3.13 7-7 7h-104.15c-3.87 0-7-3.14-7-7v-143.54c0-3.86 3.13-7 7-7h104.15c3.87 0 7 3.14 7 7z" fill="#8ac9fe"/><path d="m70.29 29.541v157.54h-23.9c-3.87 0-7-3.14-7-7v-143.54c0-3.86 3.13-7 7-7z" fill="#60b7ff"/><path d="m118.156 61.201h-39.383c-4.267 0-7.726 3.459-7.726 7.726v78.768c0 4.267 3.459 7.726 7.726 7.726s7.726-3.459 7.726-7.726v-31.657h31.657c4.267 0 7.726-3.459 7.726-7.726v-39.385c.001-4.267-3.459-7.726-7.726-7.726zm-7.726 39.384h-23.931v-23.931h23.931z" fill="#eaf6ff"/><ellipse cx="118.156" cy="436.101" fill="#92a0b5" rx="46.358" ry="46.358" transform="matrix(.707 -.707 .707 .707 -273.763 211.28)"/><circle cx="118.157" cy="436.101" fill="#eaf6ff" r="17.513"/><ellipse cx="393.844" cy="436.101" fill="#92a0b5" rx="46.358" ry="46.358" transform="matrix(.234 -.972 .972 .234 -122.423 716.752)"/><ellipse cx="393.844" cy="436.101" fill="#eaf6ff" rx="17.513" ry="17.513" transform="matrix(.397 -.918 .918 .397 -162.852 624.214)"/></g></svg>